<?xml version="1.0" encoding="UTF-8"?>
<svg id="Layer_2" data-name="Layer 2" xmlns="http://www.w3.org/2000/svg" viewBox="0 0 169.02 110.06">
  <defs>
    <style>
      .cls-1 {
        stroke-width: 0px;
      }
    </style>
  </defs>
  <g id="Layer_1-2" data-name="Layer 1">
    <path class="cls-1" d="M29.19,1.95c2.72,0,5.01.49,6.86,1.46,1.85.97,3.49,2.21,4.91,3.7-2.86,2.66-4.28,4.87-4.28,6.62,0,.78.26,1.48.78,2.09.52.62,1.39.92,2.63.92,1.3-2.27,2.92-4.41,4.87-6.42s4.25-3.78,6.91-5.3c2.66-1.52,5.69-2.74,9.1-3.65,3.41-.91,7.22-1.36,11.43-1.36,3.24,0,6.24.39,9,1.17,2.76.78,5.24,1.79,7.44,3.02,2.21,1.23,4.09,2.58,5.64,4.04,1.56,1.46,2.79,2.9,3.7,4.33,1.56-2.08,3.37-3.91,5.45-5.5,2.08-1.59,4.3-2.9,6.67-3.94,2.37-1.04,4.85-1.82,7.44-2.33,2.59-.52,5.16-.78,7.69-.78,5.97,0,11.24.94,15.81,2.82,4.57,1.88,8.42,4.59,11.53,8.12,3.11,3.54,5.48,7.82,7.1,12.84,1.62,5.03,2.43,10.69,2.43,16.98,0,2.92-.07,6.1-.2,9.54-.13,3.44-.19,6.71-.19,9.83,0,4.48.49,8.26,1.46,11.34.97,3.08,2.82,5.47,5.55,7.15.06.52.1,1.07.1,1.65v1.46c0,4.61-.73,8.68-2.19,12.21-1.46,3.54-3.42,6.5-5.89,8.9-2.47,2.4-5.35,4.2-8.66,5.4-3.31,1.2-6.81,1.8-10.51,1.8-3.89,0-7.61-.52-11.14-1.56-3.54-1.04-6.65-2.76-9.34-5.16-2.69-2.4-4.83-5.55-6.42-9.44-1.59-3.89-2.38-8.69-2.38-14.4v-30.75c0-4.35-1.43-6.52-4.28-6.52-.46,0-.94.08-1.46.24-.52.16-.91.34-1.17.54l1.75,14.5v21.99c0,4.22.32,8,.97,11.34.65,3.34,1.78,6.24,3.41,8.71-3.18,3.37-7.09,5.97-11.73,7.79-4.64,1.82-9.33,2.72-14.06,2.72-3.44,0-6.71-.42-9.83-1.27-3.11-.84-5.87-2.3-8.27-4.38-2.4-2.08-4.3-4.87-5.69-8.37-1.4-3.5-2.09-7.88-2.09-13.14v-34.16c0-4.35-1.43-6.52-4.28-6.52-.46,0-.94.08-1.46.24-.52.16-.91.34-1.17.54l1.75,14.5v25.79c0,3.5.18,6.57.54,9.2.36,2.63,1.15,5.17,2.38,7.64-2.86,2.98-6.57,5.37-11.14,7.15-4.57,1.78-9.78,2.68-15.62,2.68-3.05,0-6.08-.42-9.1-1.26-3.02-.84-5.73-2.14-8.12-3.89-2.4-1.75-4.35-3.94-5.84-6.57-1.49-2.63-2.24-5.76-2.24-9.39v-46.51c-1.95-2.72-3.39-5.8-4.33-9.24-.94-3.44-1.41-7.04-1.41-10.8,0-3.11.47-6.55,1.41-10.31.94-3.76,2.38-7.1,4.33-10.02h23.45Z"/>
  </g>
</svg>